<svg width="80" height="80" viewBox="0 0 80 80" fill="none" xmlns="http://www.w3.org/2000/svg">
<g clip-path="url(#clip0_11_15)">
<path d="M77.7778 44.4443H66.6667V57.7777L62.2222 54.8193L57.7778 57.7777V44.4443H46.6667C45.4444 44.4443 44.4444 45.4443 44.4444 46.6666V73.3332C44.4444 74.5554 45.4444 75.5554 46.6667 75.5554H77.7778C79 75.5554 80 74.5554 80 73.3332V46.6666C80 45.4443 79 44.4443 77.7778 44.4443ZM24.4444 35.5554H55.5556C56.7778 35.5554 57.7778 34.5554 57.7778 33.3332V6.66656C57.7778 5.44434 56.7778 4.44434 55.5556 4.44434H44.4444V17.7777L40 14.8193L35.5556 17.7777V4.44434H24.4444C23.2222 4.44434 22.2222 5.44434 22.2222 6.66656V33.3332C22.2222 34.5554 23.2222 35.5554 24.4444 35.5554ZM33.3333 44.4443H22.2222V57.7777L17.7778 54.8193L13.3333 57.7777V44.4443H2.22222C1 44.4443 0 45.4443 0 46.6666V73.3332C0 74.5554 1 75.5554 2.22222 75.5554H33.3333C34.5556 75.5554 35.5556 74.5554 35.5556 73.3332V46.6666C35.5556 45.4443 34.5556 44.4443 33.3333 44.4443Z" fill="white"/>
</g>
<defs>
<clipPath id="clip0_11_15">
<rect width="80" height="80" fill="white"/>
</clipPath>
</defs>
</svg>
