<svg width="80" height="80" viewBox="0 0 80 80" fill="none" xmlns="http://www.w3.org/2000/svg">
<path d="M71.0406 33.1766L69.2844 28.7859L66.1703 21C63.4969 14.3172 57.1203 10 49.9219 10H30.0781C22.8813 10 16.5031 14.3172 13.8297 21L10.7156 28.7859L8.95937 33.1766C5.19062 34.6094 2.5 38.2281 2.5 42.5V50C2.5 52.5187 3.4625 54.7922 5 56.5516V65C5 67.7609 7.23906 70 10 70H15C17.7609 70 20 67.7609 20 65V60H60V65C60 67.7609 62.2391 70 65 70H70C72.7609 70 75 67.7609 75 65V56.5516C76.5375 54.7937 77.5 52.5203 77.5 50V42.5C77.5 38.2281 74.8094 34.6094 71.0406 33.1766ZM23.1141 24.7141C24.2531 21.8672 27.0109 20 30.0781 20H49.9219C52.9891 20 55.7469 21.8672 56.8859 24.7141L60 32.5H20L23.1141 24.7141ZM15 49.9688C12 49.9688 10 47.975 10 44.9844C10 41.9937 12 40 15 40C18 40 22.5 44.4859 22.5 47.4766C22.5 50.4672 18 49.9688 15 49.9688ZM65 49.9688C62 49.9688 57.5 50.4672 57.5 47.4766C57.5 44.4859 62 40 65 40C68 40 70 41.9937 70 44.9844C70 47.975 68 49.9688 65 49.9688Z" fill="white"/>
</svg>
