<svg width="50" height="50" viewBox="0 0 50 50" fill="none" xmlns="http://www.w3.org/2000/svg">
<g clip-path="url(#clip0_12_27)">
<path d="M13.8889 41.6667C11.6667 41.6667 9.44444 39.7223 8.33333 38.8889C2.77778 35.0001 1.11111 33.6112 0 32.7778V44.4445C0 45.9784 1.24392 47.2223 2.77778 47.2223H25C26.5339 47.2223 27.7778 45.9784 27.7778 44.4445V32.7778C26.6667 33.6112 25 35.0001 19.4444 38.8889C18.3333 39.7223 16.1111 41.6667 13.8889 41.6667ZM25 25.0001H2.77778C1.24392 25.0001 0 26.244 0 27.7778V29.1667C2.22222 30.8334 1.94444 30.8334 10 36.6667C10.8333 37.2223 12.5 38.8889 13.8889 38.8889C15.2778 38.8889 16.9444 37.2223 17.7778 36.9445C25.8333 31.1112 25.5556 31.1112 27.7778 29.4445V27.7778C27.7778 26.244 26.5339 25.0001 25 25.0001ZM47.2222 16.6667H19.4444C17.9106 16.6667 16.6667 17.9106 16.6667 19.4445V22.2223H25C27.8828 22.2223 30.2595 24.4289 30.5304 27.2414L30.5556 27.2223V38.8889H47.2222C48.7561 38.8889 50 37.645 50 36.1112V19.4445C50 17.9106 48.7561 16.6667 47.2222 16.6667ZM44.4444 27.7778H38.8889V22.2223H44.4444V27.7778ZM13.8889 19.4445C13.8889 16.3811 16.3811 13.8889 19.4444 13.8889H38.8889V5.55561C38.8889 4.02176 37.645 2.77783 36.1111 2.77783H8.33333C6.79948 2.77783 5.55556 4.02176 5.55556 5.55561V22.2223H13.8889V19.4445Z" fill="black"/>
</g>
<defs>
<clipPath id="clip0_12_27">
<rect width="50" height="50" fill="white"/>
</clipPath>
</defs>
</svg>
