<svg width="80" height="80" viewBox="0 0 80 80" fill="none" xmlns="http://www.w3.org/2000/svg">
<g clip-path="url(#clip0_11_11)">
<path d="M16 20C19.3125 20 22 17.3125 22 14C22 10.6875 19.3125 8 16 8C12.6875 8 9.99998 10.6875 9.99998 14C9.99998 17.3125 12.6875 20 16 20ZM64 20C67.3125 20 70 17.3125 70 14C70 10.6875 67.3125 8 64 8C60.6875 8 58 10.6875 58 14C58 17.3125 60.6875 20 64 20ZM79.7125 66.5125L74.2125 52.7625L69.075 58.5625L68.825 60.8375L72.2875 69.4875C72.9125 71.05 74.4125 72 76 72C76.5 72 77 71.9125 77.4875 71.7125C79.5375 70.8875 80.5375 68.5625 79.7125 66.5125ZM75.4375 40.2875L73.125 30.2625C72.55 27.7625 70.8 25.6625 68.4375 24.65C66.125 23.65 63.5625 23.8125 61.425 25.0625C58.5875 26.7375 56.4625 29.375 55.4125 32.4875L54 36.725L52 38V26C52 24.9 51.1 24 50 24H30C28.9 24 28 24.9 28 26V38L25.9875 36.725L24.575 32.4875C23.5375 29.3625 21.4 26.7375 18.5625 25.0625C16.4125 23.8125 13.8625 23.65 11.55 24.65C9.18748 25.6625 7.43748 27.7625 6.86248 30.2625L4.56248 40.2875C3.98748 42.7875 4.64998 45.4375 6.36248 47.375L14.7625 56.8625L16.025 68.4375C16.25 70.475 17.975 72 20 72C20.15 72 20.2875 71.9875 20.4375 71.975C22.6375 71.7375 24.2125 69.7625 23.975 67.5625L22.7125 55.9625C22.525 54.3375 21.85 52.825 20.7625 51.5875L15.35 45.4625L17.55 36.675L18.4 39.225C18.9125 40.7875 19.8875 42.15 21.4625 43.3L27.85 47.3625C28.425 47.725 29.3625 47.9375 30 47.9875H50C50.6375 47.9375 51.575 47.725 52.15 47.3625L58.5375 43.3C60.1125 42.15 61.0875 40.8 61.6 39.225L62.45 36.675L64.65 45.4625L59.2375 51.5875C58.15 52.825 57.475 54.3375 57.2875 55.9625L56.025 67.5625C55.7875 69.7625 57.375 71.7375 59.5625 71.975C59.7125 71.9875 59.85 72 60 72C62.0125 72 63.75 70.4875 63.975 68.4375L65.2375 56.8625L73.6375 47.375C75.3375 45.4375 76.0125 42.7875 75.4375 40.2875ZM5.78748 52.7625L0.28748 66.5125C-0.53752 68.5625 0.46248 70.8875 2.51248 71.7125C4.61248 72.5375 6.89998 71.5 7.71248 69.4875L11.175 60.8375L10.925 58.5625L5.78748 52.7625Z" fill="white"/>
</g>
<defs>
<clipPath id="clip0_11_11">
<rect width="80" height="80" fill="white"/>
</clipPath>
</defs>
</svg>
