<svg width="50" height="50" viewBox="0 0 50 50" fill="none" xmlns="http://www.w3.org/2000/svg">
<g clip-path="url(#clip0_12_24)">
<path d="M48.5732 35.3321L37.6357 30.6446C37.1685 30.4455 36.6492 30.4035 36.1561 30.5251C35.6629 30.6466 35.2226 30.925 34.9014 31.3185L30.0576 37.2364C22.4558 33.6522 16.3381 27.5345 12.7539 19.9327L18.6719 15.089C19.0661 14.7683 19.3451 14.328 19.4667 13.8346C19.5883 13.3412 19.5458 12.8217 19.3457 12.3546L14.6582 1.41708C14.4386 0.913576 14.0502 0.502479 13.5599 0.25468C13.0697 0.00688003 12.5083 -0.0620903 11.9727 0.0596614L1.81641 2.40341C1.29997 2.52267 0.839204 2.81345 0.509312 3.2283C0.179419 3.64315 -0.000118966 4.15756 5.91426e-08 4.68759C5.91426e-08 29.7364 20.3027 50.0001 45.3125 50.0001C45.8427 50.0004 46.3573 49.821 46.7724 49.4911C47.1874 49.1612 47.4784 48.7003 47.5977 48.1837L49.9414 38.0274C50.0624 37.4892 49.9919 36.9256 49.7422 36.4336C49.4925 35.9417 49.0791 35.5522 48.5732 35.3321Z" fill="black"/>
</g>
<defs>
<clipPath id="clip0_12_24">
<rect width="50" height="50" fill="white"/>
</clipPath>
</defs>
</svg>
